<svg viewBox="0 0 100 100" id="svg" xmlns="http://www.w3.org/2000/svg">
	<style>
		svg { background-color: #16161d }
		svg > * {
			stroke-dashoffset: 0 !important;
			stroke: white;
			scale: 0.2;
		}
	</style>
  <circle
    cx="241"
    cy="241"
    r="249.7822098343977"
    noBBox=""
    stroke-width="2"
    fill="none"
    style="stroke-dasharray: 1568.79; stroke-dashoffset: 1568.79"
  ></circle>
  <path
    d="M218.00735892107278 87.20294356842912A174.40588713685824 174.40588713685824 0 1 0 218.00735892107278 305.2103024895019 130.80441535264367 130.80441535264367 0 1 1 218.00735892107278 87.20294356842912z"
    stroke-width="2"
    fill="none"
    transform="rotate(735.3888395148665 62.73164367675781 196.20662879943848) translate(200 105)"
    style="stroke-dasharray: 1424.56; stroke-dashoffset: 1424.56"
  ></path>
  <circle
    cx="241"
    cy="241"
    r="241.12089399902388"
    noBBox=""
    stroke-width="2"
    fill="none"
    style="stroke-dasharray: 1514.39; stroke-dashoffset: 1514.39"
  ></circle>
  <rect
    x="118.23754623945413"
    y="159.1583641596361"
    width="245.52490752109173"
    height="163.6832716807278"
    stroke-width="2"
    fill="none"
    transform="rotate(828.9141581473082 241 241.00000762939453) "
    style="stroke-dasharray: 818.416; stroke-dashoffset: 818.416"
  ></rect>
  <circle
    cx="241"
    cy="241"
    r="249.64000226686827"
    noBBox=""
    stroke-width="2"
    fill="none"
    style="stroke-dasharray: 1567.9; stroke-dashoffset: 1567.9"
  ></circle>
  <rect
    x="92.50993144634634"
    y="142.0066209642309"
    width="296.9801371073073"
    height="197.9867580715382"
    stroke-width="2"
    fill="none"
    transform="rotate(2783.33813907599 241 241) "
    style="stroke-dasharray: 989.934; stroke-dashoffset: 989.934"
  ></rect>
  <line
    x1="144.53988059030422"
    y1="241"
    x2="337.4601194096958"
    y2="241"
    stroke-width="2"
    fill="none"
    transform="rotate(2909.638721353707 241 241) "
    style="stroke-dasharray: 192.92; stroke-dashoffset: 192.92"
  ></line>
  <line
    x1="175.8566685426435"
    y1="241"
    x2="306.1433314573565"
    y2="241"
    stroke-width="2"
    fill="none"
    transform="rotate(1463.470858395745 241.00000762939453 241) "
    style="stroke-dasharray: 130.287; stroke-dashoffset: 130.287"
  ></line>
  <line
    x1="136.5907963036946"
    y1="241"
    x2="345.40920369630544"
    y2="241"
    stroke-width="2"
    fill="none"
    transform="rotate(3799.595942816532 241 241) "
    style="stroke-dasharray: 208.818; stroke-dashoffset: 208.818"
  ></line>
  <polygon
    points="241,26.753071223294626 55.456716996577825,348.12346438835266 426.5432830034222,348.12346438835266"
    stroke-width="2"
    fill="none"
    transform="rotate(999.7572152886192 240.99999237060547 187.4382667541504) "
    style="stroke-dasharray: 1113.26; stroke-dashoffset: 1113.26"
  ></polygon>
  <polyline
    points="-56.71491450626405,241 92.14254274686797,166.571271373434 241,241 389.85745725313205,315.428728626566 538.714914506264,241"
    stroke-width="2"
    fill="none"
    transform="rotate(3958.6627593975336 240.9999885559082 241.00000762939453) "
    style="stroke-dasharray: 665.711; stroke-dashoffset: 665.711"
  ></polyline>
  <circle
    cx="241"
    cy="241"
    r="249.77294844874493"
    noBBox=""
    stroke-width="2"
    fill="none"
    style="stroke-dasharray: 1568.74; stroke-dashoffset: 1568.74"
  ></circle>
  <circle
    cx="241"
    cy="241"
    r="204.1858153717801"
    noBBox=""
    stroke-width="2"
    fill="none"
    style="stroke-dasharray: 1282.42; stroke-dashoffset: 1282.42"
  ></circle>
  <rect
    x="153.3247608794558"
    y="153.3247608794558"
    width="175.3504782410884"
    height="175.3504782410884"
    stroke-width="2"
    fill="none"
    transform="rotate(624.0943316539175 241.00000762939453 241.00000762939453) "
    style="stroke-dasharray: 701.402; stroke-dashoffset: 701.402"
  ></rect>
  <line
    x1="167.21463285504018"
    y1="241"
    x2="314.7853671449598"
    y2="241"
    stroke-width="2"
    fill="none"
    transform="rotate(4105.127039299065 241 241) "
    style="stroke-dasharray: 147.571; stroke-dashoffset: 147.571"
  ></line>
  <polyline
    points="132.55598323829304,132.55598323829304 241,349.44401676170696 349.44401676170696,132.55598323829304"
    stroke-width="2"
    fill="none"
    transform="rotate(1101.5628923831352 241.00000762939453 241.00000762939453) "
    style="stroke-dasharray: 484.976; stroke-dashoffset: 484.976"
  ></polyline>
  <polyline
    points="153.39730236833358,153.39730236833358 241,328.6026976316664 328.6026976316664,153.39730236833358"
    stroke-width="2"
    fill="none"
    transform="rotate(6373.79172417706 241 241) "
    style="stroke-dasharray: 391.771; stroke-dashoffset: 391.771"
  ></polyline>
  <line
    x1="159.60982783274363"
    y1="241"
    x2="322.39017216725637"
    y2="241"
    stroke-width="2"
    fill="none"
    transform="rotate(5962.086815572738 241 241) "
    style="stroke-dasharray: 162.78; stroke-dashoffset: 162.78"
  ></line>
  <line
    x1="131.43085936136046"
    y1="241"
    x2="350.5691406386395"
    y2="241"
    stroke-width="2"
    fill="none"
    transform="rotate(1917.5937977526403 241.00000762939453 241) "
    style="stroke-dasharray: 219.138; stroke-dashoffset: 219.138"
  ></line>
  <polyline
    points="-141.27750044273057,241 49.861249778634715,145.43062488931736 241,241 432.1387502213653,336.56937511068264 623.2775004427306,241"
    stroke-width="2"
    fill="none"
    transform="rotate(109.89647629229493 241.00003051757812 240.99999237060547) "
    style="stroke-dasharray: 854.799; stroke-dashoffset: 854.799"
  ></polyline>
</svg>
